<?xml version="1.0" encoding="utf-8"?>
<!-- Generator: Adobe Illustrator 24.0.2, SVG Export Plug-In . SVG Version: 6.00 Build 0)  -->
<svg version="1.1" id="Ebene_1" xmlns="http://www.w3.org/2000/svg" xmlns:xlink="http://www.w3.org/1999/xlink" x="0px" y="0px"
	 viewBox="0 0 288.8 288" style="enable-background:new 0 0 288.8 288;" xml:space="preserve">
<style type="text/css">
	.st0{fill:#7C0530;}
	.st1{fill:#FFFFFF;}
	.st2{opacity:0.75;}
	.st3{opacity:0.5;}
</style>
<rect x="-0.4" y="0.3" class="st0" width="290.2" height="289"/>
<g>
	<path class="st1" d="M128.9,187.1c8.7,0,16.8,2.2,24.3,6.5c7.5,4.3,13.4,10.3,17.8,17.8c4.3,7.5,6.5,15.6,6.5,24.3v9.4
		c0,4.8-1.7,8.9-5.1,12.3s-7.5,5.1-12.3,5.1H32.5c-4.8,0-8.9-1.7-12.3-5.1s-5.1-7.5-5.1-12.3v-9.4c0-8.7,2.2-16.8,6.5-24.3
		c4.3-7.5,10.3-13.4,17.8-17.8c7.5-4.3,15.6-6.5,24.3-6.5c3.1,0,7.2,0.8,12.3,2.5c3.4,1,6.2,1.7,8.3,2.2c3.6,0.7,7.6,1.1,12,1.1
		c4.3,0,8.3-0.4,12-1.1c2.2-0.5,5-1.2,8.3-2.2C121.7,188,125.8,187.1,128.9,187.1z M160.1,245.1v-9.4c0-8.5-3.1-15.8-9.2-21.9
		s-13.5-9.2-21.9-9.2c-1.4,0-3.9,0.5-7.2,1.4c-8.7,2.9-17.1,4.3-25.2,4.3s-16.6-1.4-25.5-4.3c-3.6-1-6-1.4-7.2-1.4
		c-8.5,0-15.8,3.1-21.9,9.2s-9.2,13.5-9.2,21.9v9.4H160.1z M96.3,181.3c-9.4,0-18.1-2.4-26.1-7.1c-8-4.7-14.3-11.1-19-19
		s-7.1-16.7-7.1-26.1c0-9.4,2.4-18.1,7.1-26.1s11.1-14.3,19-19c8-4.7,16.7-7.1,26.1-7.1s18.1,2.4,26.1,7.1c8,4.7,14.3,11.1,19,19
		c4.7,8,7.1,16.7,7.1,26.1c0,9.4-2.4,18.1-7.1,26.1c-4.7,8-11.1,14.3-19,19C114.4,179,105.7,181.3,96.3,181.3z M96.3,94.4
		c-9.7,0-17.9,3.4-24.6,10.1c-6.8,6.8-10.1,15-10.1,24.6s3.4,17.9,10.1,24.6c6.8,6.8,15,10.1,24.6,10.1s17.9-3.4,24.6-10.1
		s10.1-15,10.1-24.6s-3.4-17.9-10.1-24.6C114.2,97.8,106,94.4,96.3,94.4z"/>
</g>
<g class="st2">
	<path class="st1" d="M178.4,157.6c8.7,0,16.8,2.2,24.3,6.5c7.5,4.3,13.4,10.3,17.8,17.8c4.3,7.5,6.5,15.6,6.5,24.3v9.4
		c0,4.8-1.7,8.9-5.1,12.3s-7.5,5.1-12.3,5.1H82c-4.8,0-8.9-1.7-12.3-5.1s-5.1-7.5-5.1-12.3v-9.4c0-8.7,2.2-16.8,6.5-24.3
		c4.3-7.5,10.3-13.4,17.8-17.8c7.5-4.3,15.6-6.5,24.3-6.5c3.1,0,7.2,0.8,12.3,2.5c3.4,1,6.2,1.7,8.3,2.2c3.6,0.7,7.6,1.1,12,1.1
		s8.3-0.4,12-1.1c2.2-0.5,5-1.2,8.3-2.2C171.2,158.5,175.3,157.6,178.4,157.6z M209.6,215.6v-9.4c0-8.5-3.1-15.8-9.2-21.9
		c-6.2-6.2-13.5-9.2-21.9-9.2c-1.4,0-3.9,0.5-7.2,1.4c-8.7,2.9-17.1,4.3-25.2,4.3s-16.6-1.4-25.5-4.3c-3.6-1-6-1.4-7.2-1.4
		c-8.5,0-15.8,3.1-21.9,9.2c-6.2,6.2-9.2,13.5-9.2,21.9v9.4H209.6z M145.8,151.8c-9.4,0-18.1-2.4-26.1-7.1s-14.3-11.1-19-19
		c-4.7-8-7.1-16.7-7.1-26.1s2.4-18.1,7.1-26.1c4.7-8,11.1-14.3,19-19s16.7-7.1,26.1-7.1c9.4,0,18.1,2.4,26.1,7.1s14.3,11.1,19,19
		s7.1,16.7,7.1,26.1s-2.4,18.1-7.1,26.1c-4.7,8-11.1,14.3-19,19S155.2,151.8,145.8,151.8z M145.8,64.8c-9.7,0-17.9,3.4-24.6,10.1
		c-6.8,6.8-10.1,15-10.1,24.6s3.4,17.9,10.1,24.6c6.8,6.8,15,10.1,24.6,10.1s17.9-3.4,24.6-10.1c6.8-6.8,10.1-15,10.1-24.6
		s-3.4-17.9-10.1-24.6C163.7,68.2,155.5,64.8,145.8,64.8z"/>
</g>
<g class="st3">
	<path class="st1" d="M220.3,129.7c8.7,0,16.8,2.2,24.3,6.5s13.4,10.3,17.8,17.8c4.3,7.5,6.5,15.6,6.5,24.3v9.4
		c0,4.8-1.7,8.9-5.1,12.3s-7.5,5.1-12.3,5.1H123.9c-4.8,0-8.9-1.7-12.3-5.1s-5.1-7.5-5.1-12.3v-9.4c0-8.7,2.2-16.8,6.5-24.3
		s10.3-13.4,17.8-17.8c7.5-4.3,15.6-6.5,24.3-6.5c3.1,0,7.2,0.8,12.3,2.5c3.4,1,6.2,1.7,8.3,2.2c3.6,0.7,7.6,1.1,12,1.1
		c4.3,0,8.3-0.4,12-1.1c2.2-0.5,5-1.2,8.3-2.2C213.1,130.5,217.2,129.7,220.3,129.7z M251.5,187.6v-9.4c0-8.5-3.1-15.8-9.2-21.9
		c-6.2-6.2-13.5-9.2-21.9-9.2c-1.4,0-3.9,0.5-7.2,1.4c-8.7,2.9-17.1,4.3-25.2,4.3c-8.1,0-16.6-1.4-25.5-4.3c-3.6-1-6-1.4-7.2-1.4
		c-8.5,0-15.8,3.1-21.9,9.2c-6.2,6.2-9.2,13.5-9.2,21.9v9.4H251.5z M187.7,123.9c-9.4,0-18.1-2.4-26.1-7.1c-8-4.7-14.3-11.1-19-19
		s-7.1-16.7-7.1-26.1s2.4-18.1,7.1-26.1s11.1-14.3,19-19s16.7-7.1,26.1-7.1c9.4,0,18.1,2.4,26.1,7.1s14.3,11.1,19,19
		c4.7,8,7.1,16.7,7.1,26.1s-2.4,18.1-7.1,26.1c-4.7,8-11.1,14.3-19,19C205.8,121.5,197.1,123.9,187.7,123.9z M187.7,36.9
		c-9.7,0-17.9,3.4-24.6,10.1s-10.1,15-10.1,24.6s3.4,17.9,10.1,24.6c6.8,6.8,15,10.1,24.6,10.1s17.9-3.4,24.6-10.1
		c6.8-6.8,10.1-15,10.1-24.6s-3.4-17.9-10.1-24.6C205.6,40.3,197.4,36.9,187.7,36.9z"/>
</g>
</svg>
